/* XPM */
static char * coriander_xpm[] = {
"108 23 253 2",
"  	c None",
". 	c #FFE200",
"+ 	c #FFB600",
"@ 	c #FF9200",
"# 	c #FF7600",
"$ 	c #FF6C00",
"% 	c #FF6A00",
"& 	c #FF7000",
"* 	c #FF6E00",
"= 	c #FF9600",
"- 	c #FFD000",
"; 	c #FFEA00",
"> 	c #FFDA00",
", 	c #FFB800",
"' 	c #FF7A00",
") 	c #FF7400",
"! 	c #FF7C00",
"~ 	c #FF7800",
"{ 	c #FF8600",
"] 	c #FF9400",
"^ 	c #FF9A00",
"/ 	c #FF8800",
"( 	c #FF8200",
"_ 	c #FF8000",
": 	c #FF7200",
"< 	c #FF8400",
"[ 	c #FF8E00",
"} 	c #FFA600",
"| 	c #FFD600",
"1 	c #FFF200",
"2 	c #FFF800",
"3 	c #FFF600",
"4 	c #FFEE00",
"5 	c #FFB200",
"6 	c #FFAA00",
"7 	c #FFCC00",
"8 	c #FFA800",
"9 	c #FF9E00",
"0 	c #FF8C00",
"a 	c #FF6600",
"b 	c #FF4400",
"c 	c #FF4000",
"d 	c #FF5C00",
"e 	c #FFA400",
"f 	c #FF7E00",
"g 	c #FFBE00",
"h 	c #FF5200",
"i 	c #ED0000",
"j 	c #A70000",
"k 	c #8B0000",
"l 	c #890000",
"m 	c #8D0000",
"n 	c #950000",
"o 	c #8F0000",
"p 	c #930000",
"q 	c #A30000",
"r 	c #F70000",
"s 	c #FF4800",
"t 	c #E70000",
"u 	c #AD0000",
"v 	c #970000",
"w 	c #990000",
"x 	c #A50000",
"y 	c #9F0000",
"z 	c #A10000",
"A 	c #B10000",
"B 	c #C30000",
"C 	c #E50000",
"D 	c #FF0000",
"E 	c #DD0000",
"F 	c #BB0000",
"G 	c #C50000",
"H 	c #C10000",
"I 	c #D10000",
"J 	c #D90000",
"K 	c #CF0000",
"L 	c #E90000",
"M 	c #FF2600",
"N 	c #FFA200",
"O 	c #FFE600",
"P 	c #FFE800",
"Q 	c #FFE400",
"R 	c #FFCE00",
"S 	c #FF8A00",
"T 	c #F30000",
"U 	c #FF0800",
"V 	c #FF2800",
"W 	c #CB0000",
"X 	c #BD0000",
"Y 	c #BF0000",
"Z 	c #B30000",
"` 	c #870000",
" .	c #910000",
"..	c #810000",
"+.	c #FF1E00",
"@.	c #CD0000",
"#.	c #EB0000",
"$.	c #FF0A00",
"%.	c #FF2C00",
"&.	c #FF0E00",
"*.	c #B90000",
"=.	c #FF3A00",
"-.	c #470000",
";.	c #1D0000",
">.	c #130000",
",.	c #170000",
"'.	c #210000",
").	c #150000",
"!.	c #1F0000",
"~.	c #330000",
"{.	c #FFC800",
"].	c #EF0000",
"^.	c #7F0000",
"/.	c #430000",
"(.	c #310000",
"_.	c #410000",
":.	c #490000",
"<.	c #6D0000",
"[.	c #6F0000",
"}.	c #5F0000",
"|.	c #2F0000",
"1.	c #190000",
"2.	c #350000",
"3.	c #AF0000",
"4.	c #FFC200",
"5.	c #FF9000",
"6.	c #FF2A00",
"7.	c #530000",
"8.	c #570000",
"9.	c #850000",
"0.	c #750000",
"a.	c #7B0000",
"b.	c #4F0000",
"c.	c #110000",
"d.	c #0F0000",
"e.	c #610000",
"f.	c #7D0000",
"g.	c #690000",
"h.	c #D70000",
"i.	c #D50000",
"j.	c #5D0000",
"k.	c #670000",
"l.	c #E10000",
"m.	c #FFD200",
"n.	c #4D0000",
"o.	c #2D0000",
"p.	c #230000",
"q.	c #FF4600",
"r.	c #5B0000",
"s.	c #0D0000",
"t.	c #000000",
"u.	c #090000",
"v.	c #9B0000",
"w.	c #830000",
"x.	c #1B0000",
"y.	c #710000",
"z.	c #FF3400",
"A.	c #F50000",
"B.	c #FF5600",
"C.	c #FFA000",
"D.	c #FF3800",
"E.	c #3B0000",
"F.	c #650000",
"G.	c #050000",
"H.	c #590000",
"I.	c #6B0000",
"J.	c #450000",
"K.	c #290000",
"L.	c #C90000",
"M.	c #790000",
"N.	c #010000",
"O.	c #390000",
"P.	c #370000",
"Q.	c #550000",
"R.	c #030000",
"S.	c #0B0000",
"T.	c #2B0000",
"U.	c #770000",
"V.	c #DB0000",
"W.	c #C70000",
"X.	c #FF0C00",
"Y.	c #FF5A00",
"Z.	c #FFC400",
"`.	c #A90000",
" +	c #510000",
".+	c #FF5800",
"++	c #FF0600",
"@+	c #B70000",
"#+	c #3F0000",
"$+	c #250000",
"%+	c #9D0000",
"&+	c #FF1C00",
"*+	c #630000",
"=+	c #FFAE00",
"-+	c #FF3C00",
";+	c #270000",
">+	c #FF1400",
",+	c #FFBC00",
"'+	c #FFB400",
")+	c #FF1200",
"!+	c #FF2400",
"~+	c #FF3E00",
"{+	c #FF2E00",
"]+	c #FF0200",
"^+	c #730000",
"/+	c #E30000",
"(+	c #FD0000",
"_+	c #FF3000",
":+	c #3D0000",
"<+	c #FFD400",
"[+	c #FFDC00",
"}+	c #FFC000",
"|+	c #FFFFFF",
"1+	c #AB0000",
"2+	c #FF3600",
"3+	c #F10000",
"4+	c #070000",
"5+	c #FF4A00",
"6+	c #FF2200",
"7+	c #F90000",
"8+	c #FF3200",
"9+	c #FF5400",
"0+	c #D30000",
"a+	c #FF4E00",
"b+	c #FF2000",
"c+	c #FF6200",
"d+	c #FF9800",
"e+	c #DF0000",
"f+	c #FF0400",
"g+	c #FFAC00",
"h+	c #FF1000",
"i+	c #FF6000",
"j+	c #FB0000",
"k+	c #080000",
"l+	c #B50000",
"m+	c #FFBA00",
"n+	c #FF6400",
"o+	c #FF5000",
"p+	c #FF1800",
"q+	c #FF6800",
"r+	c #FF4200",
"s+	c #FF5E00",
"t+	c #FF1A00",
"u+	c #4B0000",
"v+	c #FFCA00",
"w+	c #FFB000",
"x+	c #FF9C00",
"y+	c #FF4C00",
"z+	c #FFC600",
"A+	c #FFDE00",
"B+	c #FFF400",
"C+	c #FFF000",
"D+	c #FFEC00",
". + @ # $ % $ & & $ $ * * # = - ; > , @ ' & ) ' ! ~ ) ' { ] ^ / ' ( _ : $ ) { / < [ } | 1 2 3 4 | 5 6 - 7 @ : & ~ @ 8 9 / / 0 ( ~ ! _ ! & $ $ $ % $ $ $ * ) # a b c d _ e e ( * $ * & & * * : & * # { @ 9 6 9 f * & @ - ",
"g h i j k l m n n m k o p q r [ | 6 s t u v w x x y z A B C D E F G H y o x I J K L M N O P Q . R ! b @ S T w v H U V D G W E I X Y G Z v l ` ` ` ` ` ` o x F A  ...m B +.+.B o l k p p m k p p  .z @.#.$.%.&.*.m n i @ ",
", =.A -.;.>.,.'.'.,.).;.!.~.x $ {.< ].^./.!.,.;.!.'.(._.:.<.q w [.<.}.|.1.2.[.` m 3.r S 4.@ # 5., ~ 6.! ' W 7.8.y C J 9._.:.0.k ` 9.a.b.'.c.d.d.d.d.d.,.~.e.f.<.-.|.|.g.h.i.j.1.d.).!.!.,.,.!.!.1.(.k. .X l.u -.).!.n & ",
"m.# T ` n.o.1.,.1.>.>.1.p.n.h./ + q.u r.(.s.t.t.t.u.'.|.o.-.k Z v.w.k.2.x.~.y.x W ].z.9 S T u A.< = B./ C.D.@.G C J l 2.t.d.E.F.l q y }.x.t.t.t.t.t.G.p.H.9.l I.7.:.J.[.K K }.x.>.1.!.,.u.u.>.>.c.K.j.k Y L.M.'.N.d.` $ ",
"R ( z.D @.o 7.O.2.~.P.7.l J d , S i ..Q.(.c.R.N.N.S.!.T.T.E.U.F V.l.I j w.l W.X.=.Y.= Z.* `. +q .+} { / N 9 ( Y.++p P.t.t.t.t.T.7. .@+` o.R.t.t.t.t.,.7.k o F./.#+:.b.y.H L u M.M...y.n.T.$+~.E._.j.f.%+L.@+8.c.t.d.` $ ",
"C.&+C i i I n *+b.:.g.@.c / , =+-+q F.H.#+K.T.;+x.x.p.T.|.~.7.y >+$ < * s -+* 9 5 ,+7 '+-+ ./.M.)+S } f Y.' '+[ ].7.t.t.t.t.t.t.,.Q.j q n.d.t.t.t.u.2.^.v I.~.1.,.!.T.:.q !+~+6.%.{+]+3.^+g.^.%+X E /+/+(+V.<.'.u.1.o * ",
"~ Z H.*+m Z %+*+_.Q.Y Y., , _ _+X }.-.7.j.[.w.a.H.#+P.:+/./. +q q., m.- {.Z.<+[+> }+0 ~+G |+|+n.1+2+C.# 3+L a @ $.H.t.t.t.t.t.t.t.(.p W v.:.1.4+G.!.j.n 9.-.|+|+|+G.u.!.m h 8 @ $ 5+6+L W.i.7+6.d ( f * $ 2+Y F.J. +F _ ",
"$ k ,.c./.m  .7.2.^.8+'+, 9+0+|+|+|+|+J.[.v.3.j n f.<.^+a.a.k t f '+5.= R Q {.] : ~+l.%+y.|+|+n.f.r S $ Z ..$.{ a+n !.t.t.t.t.t.t.;+ .U b+V.k b.~.n.` p j.p.|+|+|+R.t.d.` c++ : &.K i.(+{+% 5.9 8 5 } d+< b l.q v.u ]+^ ",
"% l d.G.#+`.0+1+v.L { , B.|+|+|+;.x.|+|+|+U.0.a.3.e+C L ].i f+.+g+< h+V e g i+t A p I.e.<.0.<.<.p f+5.& Z I.B h # j+k.d.t.t.t.t.k+-.Z {+* $ ~+3+l+1+Z l :+d.|+|+|+S.N.c.l c+9 _+B o Y %./ m++ ^ f n+2+M &+L 3. .w u (+d+",
"$ k 1.,.I.X.% % c+( , { h.|+|+|+).1.|+|+|+n._.-.3.s { { ( _ 0 5 {.< b+q.9 # V.[.Q.r.e.<.^+y.[.f.F D.6 _ K U.m t o+B.C F.p.;.O.j.^.3.L U p+b q+a r+p+C v -.;.|+|+|+).c.'.n n+5.&+I L.>+f + 6 q+~+8+X.*.`.G B v *+7.H.*.f ",
") 3.g.` e+) =+{ $ ) ! {+|+|+|+d.).;.!.;+E.-.O.|+|+|+|+|+|+d c+_ |+|+|+d+|+|+|+/.#+:.|+|+|+|+|+^.G q.5 5.3+|+|+|+|+|+|+|+|+q |+|+|+p+|+|+|+p t z.8+|+|+|+|+|+|+|+|+!.;+|+|+|+|+|+|+5+~ { |+|+|+t |+|+|+m @+i.Y a.b.-.`.~ ",
"d++.+.h f 8 : #.3.*.I u |+|+|+d.>.x.x.!.|.E.|+|+|+5 < L |+|+|+@.|+|+|+|+&.z -.K.'.p.|.~.K.|+|+o W 8+d+C.|+|+|+/.0.L |+|+|+$ |+|+|+|+v #+|+|+|+@.|+|+|+r.H.n.|+|+|+$+|+|+|+& 6 # |+|+|+]+|+|+|+|+@.L.%+ .x @.3+t W.*.D d+",
"m.e 9 d+~ h 3+I.~._.k.e.|+|+|+>.).1.>.d.,.T.|+|+|+=+_+^+|+|+|+j.|+|+|+1+f.b.o.'.,.).;.p.!.|+|+*.e+b+s+/ |+|+|+b.-.a.|+|+|+! |+|+|+%+8.x.|+|+|+v |+|+|+;.(.O.|+|+|+!.|+|+|+* Z.6 |+|+|+I.|+|+|+^+z A x n k q ]+h % q+< {.",
"O , : t+H m H.$+).$+u+n.|+|+|+).,.>.u.N.u.2.|+|+|+_ W.(.|+|+|+n.|+|+|+ +:+~.;+p.'.K.~.2.P.|+|+)+_+c V =.|+|+|+U.:+:+|+|+|+t |+|+|+w.e.~.|+|+|+..|+|+|+R.).K.|+|+|+1.|+|+|+|+|+|+|+|+|+;+|+|+|+9.v.1+Z j ..M.K 8+B.s+{ 7 ",
"v+d 0+U.:+p.>.s.>.'.#+J.|+|+|+d.d.u.N.t.s.I.|+|+|+s+k >.|+|+|+f.|+|+|+n.E.o.;+(.7.l x j 1+|+|+^ 8 S D.6.|+|+|+ .J.(.|+|+|+9.|+|+|+9.k <.|+|+|+f.|+|+|+t.u.!.|+|+|+:.|+|+|+0 w+b W.0.J.!.|+|+|+@.A `.B Y o ^.Z W 3.j ]+x+",
"6 &.` J.$+,.d.c.>.x.~.#+|+|+|+R.R.t.N.s.P.X |+|+|+h+I.x.|+|+|+7+|+|+|+I.:.O.E.F.W ~+$ $ % |+|+v+4.+ d+= |+|+|+^. +-.|+|+|+<.|+|+|+e.9.l |+|+|+l |+|+|+t.R.>.|+|+|+Y |+|+|+}+/ h.}.:.u+u+|+|+|+X.H n `.F @+@.e+u r.E.q ~ ",
"^ r n I.#+;.s.s.s.c.$+:+:+|+|+|+4+>.|+|+|+c |+|+|+%+^+a.|+|+|+& |+|+|+w <.8.[.W Y., , < q+|+|+a h i+' N |+|+|+I.F.|+|+|+|+[.|+|+|+2.H.a.|+|+|+v |+|+|+t.t.s.|+|+|++.|+|+|+4.* H -.:+k.z |+|+|+]+G l 9.l+A.+.7+z n.K.m $ ",
"[ t %+ .F.p.G.N.N.G.).o._.J.E.|+|+|+|+z._ + Z.|+|+|+|+|+|+~ : -+|+|+|+x y v.I q.w+}+|+|+|+|+|+|+|+q H X.5+|+|+|+|+q |+|+|+M.|+|+|+K.-.U.|+|+|+v ` |+|+|+|+|+|+|+|+7+V |+|+|+|+|+|+ +^.@.|+|+|+W.0+Z j I D ].l+..u+T.m $ ",
"< K l v.f.o.R.t.t.t.R.d.'.P.-.k.X D.{ m+{.+ ] s+y+q+{ { * r+].o u+o.:+<.u L -+9 g & t a.b._.E.:+#+O.E.*+p q z u 3.v ^+H.7.F.9.w.}.Q.[.v.y y.j.` 1+v.[.j.f.w q 1+@+X j+{ ( X.]+b+C y y X `.y.*+9.B e+l.e+*.a.*+k. +#+z ) ",
"' *.^+z  .2.R.t.t.t.t.t.4+x.Q.W Y.+ ,+C.( Y.-+r+0 } n+U H  .j.;+S.R.S.|.M.W {+9 = ]+^.u+:+(.!.;.K.p.>.,.o.-.g.f.I.J.T.!.!.|.8.w.q l+H K K 1+U.U.x L.h.r r+q+s i u B V x+& K G V r+$.I %+}.(.~.n.^+z @+%+*+~.E.8.r.e.B ( ",
"' Z [.3.`.u+,.d.d.d.d.d.d.p.w.~+g Z.% t++.6+)+8+@ ' C w.}. +:.~.;.c.c.'.:.f./+f f 0+r.E.E.O.;+'.(.~.!.,.p.(.:+J.O.'.).>.>.!./.^.*.I 0+I i.0+3.l m F X.# z+A+}+9+i.C * Z.# B n /+2+-+7+v. +P.:+#+E.-. +-.|.;+E.8.F.f.E 0 ",
"^ D W D D @+o ` ` ` ` ` ` n #.0 [+'+-+]+{+a+r+n+8 ! T l+l+Y B l+%+m l o y F h+@ d+p+*.y y y ` y.m y l U.` v w v.v o l ` ` m %+H C #.i 7+&.!+&+T i.C 2+g+; 3 P d+t+b+9 [+d+$.0+3+{+i+q.7+B Z Z `.n o o m k  .x @+H 0+b+e ",
"<+d+{ ^ ^ f * $ * $ $ $ $ & @ - 4 | 9 5.6 m+5 4.> z+[ ~ f { { < ) $ % $ : ! 9 - <+N f : : % =.&.c a a+{+a+$ : & * $ % % % $ * ~ < < { 5.x+8 8 d+{ / } > B+2 C+{.< / 7 D+m.x+< S 9 , + x+{ _ f ~ & $ $ $ * * ) ! _ { e | "};
